<svg xmlns="http://www.w3.org/2000/svg" version="1.1" xmlns:xlink="http://www.w3.org/1999/xlink"  width="1440" height="250" preserveAspectRatio="none" viewBox="0 0 1440 250"><g mask="url(&quot;#SvgjsMask1009&quot;)" fill="none"><path d="M20 250L270 0L312 0L62 250z" fill="url(&quot;#SvgjsLinearGradient1010&quot;)"></path><path d="M278.6 250L528.6 0L606.6 0L356.6 250z" fill="url(&quot;#SvgjsLinearGradient1010&quot;)"></path><path d="M521.2 250L771.2 0L1012.7 0L762.7 250z" fill="url(&quot;#SvgjsLinearGradient1010&quot;)"></path><path d="M754.8000000000001 250L1004.8000000000001 0L1255.3000000000002 0L1005.3000000000001 250z" fill="url(&quot;#SvgjsLinearGradient1010&quot;)"></path><path d="M1396 250L1146 0L916.5 0L1166.5 250z" fill="url(&quot;#SvgjsLinearGradient1011&quot;)"></path><path d="M1157.4 250L907.4000000000001 0L586.4000000000001 0L836.4000000000001 250z" fill="url(&quot;#SvgjsLinearGradient1011&quot;)"></path><path d="M925.8 250L675.8 0L602.3 0L852.3 250z" fill="url(&quot;#SvgjsLinearGradient1011&quot;)"></path><path d="M688.1999999999999 250L438.19999999999993 0L114.19999999999993 0L364.19999999999993 250z" fill="url(&quot;#SvgjsLinearGradient1011&quot;)"></path><path d="M1274.0936679914596 250L1440 84.09366799145957L1440 250z" fill="url(&quot;#SvgjsLinearGradient1010&quot;)"></path><path d="M0 250L165.90633200854043 250L 0 84.09366799145957z" fill="url(&quot;#SvgjsLinearGradient1011&quot;)"></path></g><defs><mask id="SvgjsMask1009"><rect width="1440" height="250" fill="#ffffff"></rect></mask><linearGradient x1="0%" y1="100%" x2="100%" y2="0%" id="SvgjsLinearGradient1010"><stop stop-color="rgba(255, 108, 34, 0.31)" offset="0"></stop><stop stop-opacity="0" stop-color="rgba(255, 108, 34, 0.31)" offset="0.66"></stop></linearGradient><linearGradient x1="100%" y1="100%" x2="0%" y2="0%" id="SvgjsLinearGradient1011"><stop stop-color="rgba(255, 108, 34, 0.31)" offset="0"></stop><stop stop-opacity="0" stop-color="rgba(255, 108, 34, 0.31)" offset="0.66"></stop></linearGradient></defs></svg>